<svg version="1.2" xmlns="http://www.w3.org/2000/svg" viewBox="0 0 184 184" width="184" height="184">
	<title>logo</title>
	<style>
		.s0 { fill: #d19b2a } 
		.s1 { fill: #1a469d } 
	</style>
	<g>
		<g>
			<path fill-rule="evenodd" class="s0" d="m6.9 0h33.9v87h-40.3v-80.6c0-3.5 2.9-6.4 6.4-6.4zm40.2 0h33.9c3.6 0 6.4 2.9 6.4 6.4v80.6h-40.3zm-20.1 35.5v15.9h4.7v-15.9zm29.3 0v15.9h4.7v-15.9z"/>
			<path fill-rule="evenodd" class="s1" d="m103.3 0h23.6v35.6h-0.7l-2.6 1.4-15.1 23 2.7 4.9h58.4l2.7-4.9-15.1-23-2.6-1.4h-0.7v-35.6h23.6c3.5 0 6.4 2.9 6.4 6.4v80.6h-87v-80.6c0-3.5 2.9-6.4 6.4-6.4zm29.9 0h14.4v35.6h-14.3zm30.5 58.5h-46.7l10.8-16.6h25z"/>
			<path fill-rule="evenodd" class="s1" d="m87.4 157.6v19.4c0 3.5-2.8 6.4-6.4 6.4h-74.1c-3.6 0-6.4-2.9-6.4-6.4v-19.4h32.1l1 4.8h20.7l1-4.8zm0-61.2v25.9h-87v-25.9h32.2l1 4.8h20.6l1-4.8zm0 32.2v22.6h-87v-22.6h32.2l1 4.8h20.6l1-4.8z"/>
			<path fill-rule="evenodd" class="s0" d="m183.9 96.4v80.6c0 3.5-2.9 6.4-6.4 6.4h-74.2c-3.5 0-6.4-2.9-6.4-6.4v-80.6zm-71 22.8v41.5c0 3.7 3.1 6.7 6.8 6.7h41.5c3.7 0 6.7-3 6.7-6.7v-41.5c0-3.7-3-6.8-6.7-6.8h-41.5c-3.7 0-6.8 3.1-6.8 6.8zm48.6 0v41.5c0 0.2-0.1 0.3-0.3 0.3h-41.5c-0.2 0-0.4-0.1-0.4-0.4v-41.4c0-0.2 0.2-0.4 0.4-0.4h41.5c0.2 0 0.4 0.2 0.3 0.4z"/>
		</g>
	</g>
</svg>