<?xml version="1.0" encoding="utf-8"?>
<!-- Generator: Adobe Illustrator 26.5.0, SVG Export Plug-In . SVG Version: 6.00 Build 0)  -->
<svg version="1.1" id="Layer_1" xmlns="http://www.w3.org/2000/svg" xmlns:xlink="http://www.w3.org/1999/xlink" x="0px" y="0px"
	 viewBox="0 0 446.37 285.84" style="enable-background:new 0 0 446.37 285.84;" xml:space="preserve">
<style type="text/css">
	.st0{fill-rule:evenodd;clip-rule:evenodd;fill:#D19B2A;}
	.st1{fill-rule:evenodd;clip-rule:evenodd;fill:#1A469D;}
	.st2{fill:#1A469D;}
</style>
<g>
	<g>
		<path class="st0" d="M137.88,0h33.9v86.96h-40.3V6.4C131.48,2.88,134.36,0,137.88,0L137.88,0z M191.96,35.55v15.87h-4.77V35.55
			H191.96L191.96,35.55z M162.74,35.55v15.87h-4.77V35.55H162.74L162.74,35.55z M178.14,0h33.9c3.52,0,6.4,2.88,6.4,6.4v80.56h-40.3
			V0L178.14,0z"/>
		<path class="st1" d="M234.32,0h23.56v35.58h-0.65l-2.66,1.44L239.52,60l2.66,4.92h58.46l2.66-4.92l-15.06-22.98l-2.66-1.44h-0.65
			V0h23.56c3.52,0,6.4,2.88,6.4,6.4v80.56h-86.96V6.4C227.92,2.88,230.8,0,234.32,0L234.32,0z M264.25,0h14.32v35.58h-14.32V0
			L264.25,0z M283.86,41.94h-24.91l-10.89,16.62h46.7L283.86,41.94L283.86,41.94z"/>
		<path class="st1" d="M218.44,157.6v19.41c0,3.52-2.88,6.4-6.4,6.4h-74.17c-3.52,0-6.4-2.88-6.4-6.4V157.6h32.16l0.99,4.78h20.65
			l0.99-4.78H218.44L218.44,157.6z M218.44,96.44v25.81h-86.96V96.44h32.16l0.99,4.78h20.65l0.99-4.78H218.44L218.44,96.44z
			 M218.44,128.61v22.63h-86.96v-22.63h32.16l0.99,4.78h20.65l0.99-4.78H218.44L218.44,128.61z"/>
		<path class="st0" d="M314.89,96.44v80.57c0,3.52-2.88,6.4-6.4,6.4h-74.17c-3.52,0-6.4-2.88-6.4-6.4V96.44H314.89L314.89,96.44z
			 M250.68,112.44h41.46c3.71,0,6.76,3.05,6.76,6.76v41.46c0,3.71-3.05,6.76-6.76,6.76h-41.46c-3.71,0-6.76-3.05-6.76-6.76v-41.46
			C243.92,115.49,246.97,112.44,250.68,112.44L250.68,112.44z M292.13,118.8h-41.46c-0.23,0-0.39,0.17-0.39,0.39v41.46
			c0,0.23,0.17,0.39,0.39,0.39h41.46c0.22,0,0.39-0.17,0.39-0.39v-41.46C292.53,118.97,292.36,118.8,292.13,118.8L292.13,118.8z"/>
	</g>
	<g>
		<path class="st2" d="M20.06,233.66v10.6c0,1.54,1.56,2.78,3.48,2.78h14.35c1.92,0,3.48,1.25,3.48,2.78v8.82
			c0,1.54-1.56,2.78-3.48,2.78H23.54c-1.92,0-3.48,1.25-3.48,2.78v18.84c0,1.54-1.56,2.78-3.48,2.78H3.48
			c-1.92,0-3.48-1.25-3.48-2.78v-55.64c0-6.09,6.16-11.02,13.76-11.02h32.55c1.92,0,3.48,1.25,3.48,2.78v8.92
			c0,1.54-1.56,2.78-3.48,2.78H23.54C21.62,230.88,20.06,232.12,20.06,233.66z"/>
		<path class="st2" d="M202.86,274.14v8.92c0,1.54-1.56,2.78-3.48,2.78h-42.83c-1.92,0-3.48-1.25-3.48-2.78v-63.88
			c0-1.54,1.56-2.78,3.48-2.78h13.11c1.92,0,3.48,1.25,3.48,2.78v49.39c0,1.54,1.56,2.78,3.48,2.78h22.77
			C201.3,271.36,202.86,272.6,202.86,274.14z"/>
		<path class="st2" d="M253.49,285.84h-25.98c-4.37,0-8.57-1.39-11.66-3.87l0,0c-3.09-2.48-4.83-5.84-4.83-9.34v-43.02
			c0-3.5,1.74-6.86,4.83-9.34l0,0c3.09-2.48,7.29-3.87,11.66-3.87h25.98c4.37,0,8.57,1.39,11.66,3.87l0,0
			c3.09,2.48,4.83,5.84,4.83,9.34v6.87c0,1.67-1.69,3.03-3.78,3.03h-11.75c-2.09,0-3.78-1.36-3.78-3.03v-1.39
			c0-1.83-1.85-3.32-4.14-3.32h-12.04c-2.29,0-4.14,1.48-4.14,3.32v32.06c0,1.83,1.85,3.32,4.14,3.32h12.04
			c2.29,0,4.14-1.48,4.14-3.32v-1.39c0-1.67,1.69-3.03,3.78-3.03h11.75c2.09,0,3.78,1.36,3.78,3.03v6.87c0,3.5-1.74,6.86-4.83,9.34
			h0C262.06,284.45,257.87,285.84,253.49,285.84z"/>
		<path class="st2" d="M335.86,224.55c-0.82-1.59-2.03-3.05-3.57-4.29c-3.1-2.48-7.3-3.87-11.66-3.87h-25.98
			c-2.18,0-4.33,0.35-6.3,1.01c-1.99,0.66-3.81,1.63-5.35,2.86c-3.09,2.48-4.84,5.84-4.84,9.34v43.02c0,1.75,0.44,3.46,1.26,5.06
			c0.83,1.58,2.04,3.04,3.58,4.29c3.09,2.48,7.28,3.87,11.65,3.87h25.98c2.18,0,4.33-0.35,6.3-1.01c1.99-0.66,3.81-1.62,5.36-2.86
			c3.09-2.48,4.83-5.84,4.83-9.34v-43.02C337.12,227.85,336.68,226.13,335.86,224.55z M312.82,270.46h-10.37
			c-2.75,0-4.98-1.78-4.98-3.99v-30.72c0-2.2,2.23-3.99,4.98-3.99h10.37c2.75,0,4.98,1.78,4.98,3.99v30.72
			C317.79,268.67,315.57,270.46,312.82,270.46z"/>
		<g>
			<path class="st2" d="M124.81,219.18v63.87c0,1.54,1.56,2.79,3.48,2.79h13.13c1.92,0,3.48-1.25,3.48-2.79v-63.87
				c0-1.54-1.56-2.79-3.48-2.79h-13.13C126.37,216.4,124.81,217.64,124.81,219.18z"/>
		</g>
		<path class="st2" d="M100.06,216.39c-1.92,0-3.48,1.25-3.48,2.78v10.21v11.7c0,1.54-1.56,2.78-3.48,2.78H81.48
			c-1.92,0-3.48-1.25-3.48-2.78v-21.91c0-1.54-1.56-2.78-3.48-2.78H61.42c-1.92,0-3.48,1.25-3.48,2.78v63.88
			c0,1.54,1.56,2.78,3.48,2.78h13.11c1.92,0,3.48-1.25,3.48-2.78v-21.91c0-1.54,1.56-2.78,3.48-2.78h11.62
			c1.92,0,3.48,1.25,3.48,2.78v21.91c0,1.54,1.56,2.78,3.48,2.78h13.11c1.92,0,3.48-1.25,3.48-2.78v-39.76v-12.42v-11.7
			c0-1.54-1.56-2.78-3.48-2.78H100.06z"/>
		<g>
			<path class="st2" d="M408.41,244.66v37.71c0,1.92-1.55,3.47-3.47,3.47h-18.1c-1.92,0-3.47-1.55-3.47-3.47v-37.71
				c0-1.92,1.55-3.47,3.47-3.47h18.1C406.85,241.18,408.41,242.74,408.41,244.66z"/>
			<path class="st2" d="M370.45,244.66v37.71c0,1.92-1.55,3.47-3.47,3.47h-18.1c-1.92,0-3.47-1.55-3.47-3.47v-37.71
				c0-1.92,1.55-3.47,3.47-3.47h18.1C368.9,241.18,370.45,242.74,370.45,244.66z"/>
			<path class="st2" d="M345.52,228.89l-0.11-9.69c-0.02-1.55,1.54-2.81,3.47-2.81h79.5c7.88,0,14.09,3.05,16.73,7.68
				c0.6,1.05,1.05,2.53,1.02,4.31l0.23,54.66c0.01,1.54-1.55,2.79-3.47,2.79h-18.14c-1.91,0-3.47-1.24-3.47-2.77l-0.19-46.79
				c0.02-0.42-0.15-0.95-0.39-1.37c-1.02-1.79-3.7-3.26-6.46-3.26h-65.25C347.09,231.65,345.54,230.42,345.52,228.89z"/>
		</g>
		<path class="st2" d="M96.58,251.11"/>
	</g>
</g>
<g>
</g>
<g>
</g>
<g>
</g>
<g>
</g>
<g>
</g>
<g>
</g>
<g>
</g>
<g>
</g>
<g>
</g>
<g>
</g>
<g>
</g>
<g>
</g>
<g>
</g>
<g>
</g>
<g>
</g>
</svg>
