<svg version="1.2" xmlns="http://www.w3.org/2000/svg" viewBox="0 0 1200 1200" width="1200" height="1200">
	<title>placeholder</title>
	<defs>
		<linearGradient id="g1" x2="1" gradientUnits="userSpaceOnUse" gradientTransform="matrix(-392.123,392.117,-0.003,-0.003,796.852,403.902)">
			<stop offset="0" stop-color="#c9c9c9" stop-opacity="0"/>
			<stop offset=".208" stop-color="#c9c9c9" stop-opacity="1"/>
			<stop offset=".792" stop-color="#c9c9c9" stop-opacity="1"/>
			<stop offset="1" stop-color="#c9c9c9" stop-opacity="0"/>
		</linearGradient>
		<linearGradient id="g2" x2="1" gradientUnits="userSpaceOnUse" gradientTransform="matrix(-1201.419,0,0,0,NaN,NaN)">
			<stop offset="0" stop-color="#c9c9c9" stop-opacity="0"/>
			<stop offset=".208" stop-color="#c9c9c9" stop-opacity="1"/>
			<stop offset=".792" stop-color="#c9c9c9" stop-opacity="1"/>
			<stop offset="1" stop-color="#c9c9c9" stop-opacity="0"/>
		</linearGradient>
		<linearGradient id="g3" x2="1" gradientUnits="userSpaceOnUse" gradientTransform="matrix(0,-1199.759,0,0,0,1199.759)">
			<stop offset="0" stop-color="#c9c9c9" stop-opacity="0"/>
			<stop offset=".208" stop-color="#c9c9c9" stop-opacity="1"/>
			<stop offset=".792" stop-color="#c9c9c9" stop-opacity="1"/>
			<stop offset="1" stop-color="#c9c9c9" stop-opacity="0"/>
		</linearGradient>
		<linearGradient id="g4" x2="1" gradientUnits="userSpaceOnUse" gradientTransform="matrix(392.122,392.117,-0.002,.002,404.85,403.903)">
			<stop offset="0" stop-color="#c9c9c9" stop-opacity="0"/>
			<stop offset=".208" stop-color="#c9c9c9" stop-opacity="1"/>
			<stop offset=".792" stop-color="#c9c9c9" stop-opacity="1"/>
			<stop offset="1" stop-color="#c9c9c9" stop-opacity="0"/>
		</linearGradient>
	</defs>
	<style>
		.s0 { fill: #eaeaea } 
		.s1 { fill: #fafafa } 
		.s2 { fill: none;stroke: #c9c9c9;stroke-width: 2.4 } 
		.s3 { fill: none;stroke: url(#g1);stroke-width: 2.4 } 
		.s4 { fill: none;stroke: url(#g2);stroke-width: 2.4 } 
		.s5 { fill: none;stroke: url(#g3);stroke-width: 2.4 } 
		.s6 { fill: none;stroke: url(#g4);stroke-width: 2.4 } 
		.s7 { fill: #ffffff } 
		.s8 { fill: #d19b2a } 
		.s9 { fill: #1a469d } 
	</style>
	<path fill-rule="evenodd" class="s0" d="m3 0h1194c1.7 0 3 1.3 3 3v1194c0 1.7-1.3 3-3 3h-1194c-1.7 0-3-1.3-3-3v-1194c0-1.7 1.3-3 3-3z"/>
	<g style="opacity: .5">
		<g style="opacity: .5">
			<path class="s1" d="m600.7 736.5c-75.4 0-136.6-61.2-136.6-136.6 0-75.5 61.2-136.6 136.6-136.6 75.5 0 136.6 61.1 136.6 136.6 0 75.4-61.1 136.6-136.6 136.6z"/>
			<path class="s2" d="m600.7 736.5c-75.4 0-136.6-61.2-136.6-136.6 0-75.5 61.2-136.6 136.6-136.6 75.5 0 136.6 61.1 136.6 136.6 0 75.4-61.1 136.6-136.6 136.6z"/>
		</g>
		<path class="s3" d="m406 796.6l391.4-391.4"/>
		<path class="s4" d="m404.8 598.7h391.8"/>
		<path class="s5" d="m599.5 795.7v-391.7"/>
		<path class="s6" d="m795.7 796.6l-391.4-391.4"/>
		<path class="s7" d="m600.7 656.7c-31.4 0-56.8-25.4-56.8-56.8 0-31.4 25.4-56.8 56.8-56.8 31.4 0 56.8 25.4 56.8 56.8 0 31.4-25.4 56.8-56.8 56.8z"/>
		<path class="s2" d="m600.7 656.7c-31.4 0-56.8-25.4-56.8-56.8 0-31.4 25.4-56.8 56.8-56.8 31.4 0 56.8 25.4 56.8 56.8 0 31.4-25.4 56.8-56.8 56.8z"/>
		<g>
			<path fill-rule="evenodd" class="s8" d="m571.8 569.2h11.3v28.9h-13.4v-26.8c0-1.1 0.9-2.1 2.1-2.1zm13.4 0h11.3c1.1 0 2.1 1 2.1 2.1v26.8h-13.4zm-6.7 11.9v5.2h1.6v-5.2zm9.7 0v5.2h1.6v-5.2z"/>
			<path fill-rule="evenodd" class="s9" d="m603.9 569.2h7.8v11.8h-0.2l-0.9 0.5-5 7.7 0.9 1.6h19.4l0.9-1.6-5-7.7-0.9-0.5h-0.2v-11.8h7.9c1.1 0 2.1 1 2.1 2.1v26.8h-28.9v-26.8c0-1.1 0.9-2.1 2.1-2.1zm14.7 0v11.8h-4.8v-11.8zm5.4 19.5h-15.5l3.6-5.5h8.3z"/>
			<path fill-rule="evenodd" class="s9" d="m598.6 621.6v6.5c0 1.1-1 2.1-2.1 2.1h-24.7c-1.2 0-2.1-1-2.1-2.1v-6.5h10.7l0.3 1.6h6.9l0.3-1.6zm0-20.3v8.6h-28.9v-8.6h10.7l0.3 1.6h6.9l0.3-1.6zm0 10.7v7.5h-28.9v-7.5h10.7l0.3 1.6h6.9l0.3-1.6z"/>
			<path fill-rule="evenodd" class="s8" d="m630.7 601.3v26.8c0 1.1-1 2.1-2.1 2.1h-24.7c-1.2 0-2.1-1-2.1-2.1v-26.8zm-23.6 7.5v13.8c0 1.3 1 2.3 2.2 2.3h13.8c1.2 0 2.2-1 2.2-2.3v-13.8c0-1.2-1-2.2-2.2-2.2h-13.8c-1.2 0-2.2 1-2.2 2.2zm16.1 0v13.8q0 0.2-0.1 0.2h-13.8q-0.1 0-0.1-0.2v-13.8q0-0.1 0.1-0.1h13.8q0.1 0 0.1 0.1z"/>
		</g>
	</g>
</svg>